<svg width="16" height="16" viewBox="0 0 16 16" fill="none" xmlns="http://www.w3.org/2000/svg">
<path d="M6.5 0.5C5.53013 0.5 4.70364 1.132 4.39062 2H0.5V3.5H4.39062C4.70364 4.368 5.53013 5 6.5 5C7.73376 5 8.75 3.98376 8.75 2.75C8.75 1.51624 7.73376 0.5 6.5 0.5ZM6.5 2C6.9231 2 7.25 2.3269 7.25 2.75C7.25 3.1731 6.9231 3.5 6.5 3.5C6.0769 3.5 5.75 3.1731 5.75 2.75C5.75 2.3269 6.0769 2 6.5 2ZM10.25 2V3.5H15.5V2H10.25ZM10.25 5.75C9.28013 5.75 8.45364 6.382 8.14062 7.25H0.5V8.75H8.14062C8.45364 9.618 9.28013 10.25 10.25 10.25C11.4838 10.25 12.5 9.23376 12.5 8C12.5 6.76624 11.4838 5.75 10.25 5.75ZM10.25 7.25C10.6731 7.25 11 7.5769 11 8C11 8.4231 10.6731 8.75 10.25 8.75C9.8269 8.75 9.5 8.4231 9.5 8C9.5 7.5769 9.8269 7.25 10.25 7.25ZM14 7.25V8.75H15.5V7.25H14ZM4.25 11C3.28013 11 2.45364 11.632 2.14062 12.5H0.5V14H2.14062C2.45364 14.868 3.28013 15.5 4.25 15.5C5.48376 15.5 6.5 14.4838 6.5 13.25C6.5 12.0162 5.48376 11 4.25 11ZM4.25 12.5C4.6731 12.5 5 12.8269 5 13.25C5 13.6731 4.6731 14 4.25 14C3.8269 14 3.5 13.6731 3.5 13.25C3.5 12.8269 3.8269 12.5 4.25 12.5ZM8 12.5V14H15.5V12.5H8Z" fill="black"/>
</svg>
